<svg id="Objects" xmlns="http://www.w3.org/2000/svg" viewBox="0 0 584.29 392.57"><defs><style>.cls-1{fill:#4e3d5f;}.cls-2,.cls-5{fill:#3c3c3b;}.cls-3{fill:#41868f;}.cls-4{fill:#db495e;}.cls-5{font-size:63px;font-family:Bebas, Bebas;letter-spacing:0.06em;}.cls-6{letter-spacing:0.05em;}.cls-7{letter-spacing:0.08em;}.cls-8{letter-spacing:-0.06em;}.cls-9{letter-spacing:0.07em;}.cls-10{letter-spacing:0.08em;}.cls-11{letter-spacing:0.05em;}</style></defs><title>psu-logo</title><path class="cls-1" d="M690.33,505.2l-.07-226.44H655.08V505.2c0,26.63-11.83,36.54-43.52,36.54-40.83,0-43.8-9.73-43.8-25.8,0-1.74.08-3.44.15-5.1s.08-3.44.08-5v-227H532.72v227c0,1.52,0,3.08-.08,4.69,0,1.79-.07,3.62-.07,5.46,0,12.85,0,47.06,79,47.06,52.26,0,78.77-19.47,78.77-57.8Zm0,0" transform="translate(-124.42 -260.27)"/><rect class="cls-2" x="460.01" y="31.75" width="10.01" height="226.44"/><rect class="cls-2" x="480.96" y="31.75" width="9.99" height="226.44"/><rect class="cls-2" x="503.18" y="31.75" width="10.07" height="226.44"/><polygon class="cls-3" points="408.15 18.48 425.86 0 443.56 18.48 408.15 18.48"/><polygon class="cls-1" points="420.9 5.17 430.81 5.17 425.86 0 420.9 5.17"/><path class="cls-4" d="M457.21,554.94c2.36,0,4.77.06,7.23.06,17.09,0,62.6,0,62.6-67.8,0-44.86-25.86-67.62-76.91-67.62H148.91v30.28H450.13c35.45,0,48.69,10.1,48.69,37.34,0,35.05-13,37.58-34.38,37.58-2.31,0-4.57,0-6.82-.11s-4.51,0-6.67,0h-302v30.21H451c2,0,4.11.06,6.26.11Zm0,0" transform="translate(-124.42 -260.27)"/><rect class="cls-2" x="42.14" y="244.46" width="301.28" height="8.4"/><rect class="cls-2" x="42.14" y="223.42" width="301.28" height="8.47"/><rect class="cls-2" x="42.14" y="201.16" width="301.28" height="8.47"/><polygon class="cls-1" points="24.49 189.59 0 174.44 24.49 159.3 24.49 189.59"/><polygon class="cls-4" points="6.85 178.68 6.85 170.21 0 174.44 6.85 178.68"/><path class="cls-3" d="M502.59,279.79H200.51c-2,0-4.09-.05-6.25-.05-2.35-.05-4.79-.1-7.22-.1-17.11,0-62.62,0-62.62,67.27,0,44.55,25.88,67.12,76.92,67.12H502.59V384L201.34,384c-35.5,0-48.69-10.07-48.69-37.13,0-34.79,13-37.28,34.39-37.28,2.3,0,4.55.05,6.76.1s4.55,0,6.71,0H502.59Zm0,0" transform="translate(-124.42 -260.27)"/><rect class="cls-2" x="59.22" y="61.33" width="301.3" height="7.52"/><rect class="cls-2" x="59.22" y="82.19" width="301.3" height="7.52"/><rect class="cls-2" x="59.22" y="104.27" width="301.3" height="7.52"/><polygon class="cls-4" points="378.17 19.51 402.62 34.51 378.17 49.51 378.17 19.51"/><polygon class="cls-3" points="395.78 30.31 395.78 38.7 402.62 34.51 395.78 30.31"/><text class="cls-5" transform="translate(23.28 378.96)">p<tspan class="cls-6" x="36.48" y="0">ro</tspan><tspan class="cls-7" x="109.59" y="0">j</tspan><tspan class="cls-6" x="138.86" y="0">ect S</tspan><tspan class="cls-8" x="288.93" y="0">t</tspan><tspan class="cls-9" x="317.59" y="0">a</tspan><tspan class="cls-10" x="358.41" y="0">n</tspan><tspan class="cls-11" x="398.3" y="0">d-</tspan><tspan class="cls-7" x="467.86" y="0">u</tspan><tspan class="cls-11" x="505.33" y="0">p</tspan></text></svg>